<svg width="422" height="455" viewBox="0 0 422 455" fill="none" xmlns="http://www.w3.org/2000/svg">
<path d="M244.967 113.452C261.341 106.159 281.08 114.556 288.993 132.322C296.901 150.076 289.939 170.366 273.566 177.659C257.159 184.966 237.443 176.559 229.535 158.805C221.621 141.039 228.561 120.759 244.967 113.452Z" stroke="#F7FFFD" stroke-opacity="0.1"/>
<path d="M202.163 48.4001C205.877 46.3634 209.699 44.5406 213.592 42.9321L214.553 42.5391C249.235 28.6024 282.946 35.4076 310.151 54.026C336.942 72.3609 357.41 102.149 366.22 134.832L366.631 136.39C377.451 178.372 372.884 223.752 358.187 264.128C344.095 302.854 319.393 337.06 294.198 369.599C284.872 331.976 262.953 269.567 214.563 227.199C181.661 198.401 151.755 184.832 130.058 178.464C119.211 175.281 110.418 173.898 104.331 173.312C101.287 173.018 98.9202 172.924 97.3111 172.903C96.7438 172.896 96.2707 172.899 95.8954 172.905C96.1676 172.557 96.5288 172.107 96.9811 171.579C98.1196 170.248 99.8257 168.411 102.091 166.394C106.481 162.485 112.962 157.907 121.469 155.023L122.299 154.749C147.345 146.721 168.407 154.51 188.908 165.566C194.033 168.33 199.117 171.295 204.22 174.266C209.319 177.236 214.437 180.211 219.618 182.989C229.979 188.545 240.619 193.323 251.943 195.703C269.405 199.377 291.206 195.813 302.144 180.099L302.145 180.098C310.234 168.445 311.595 152.52 310.642 138.87L310.642 138.865C310.63 138.703 310.615 138.486 310.596 138.295C309.409 122.396 301.042 96.2261 283.251 75.9424C265.881 56.1399 239.526 41.9518 202.163 48.4001Z" stroke="#F7FFFD" stroke-opacity="0.1"/>
<path d="M157.605 322.055C173.68 327.314 184.693 329.248 197.216 329.637L197.215 329.636C204.942 329.888 212.699 329.066 220.401 328.369C227.635 327.715 234.827 327.171 241.976 327.707L243.405 327.83C249.675 328.425 253.935 329.748 257.218 332.206C260.375 334.571 262.682 338.027 264.978 343.054C225.245 347.815 185.332 341.578 157.605 322.055Z" stroke="#F7FFFD" stroke-opacity="0.1"/>
<path d="M164.507 308.235C167.196 308.325 171.005 308.372 175.492 308.204C184.181 307.879 195.433 306.748 206.011 303.541L207.032 303.224C211.892 301.678 218.562 300.391 224.74 301.155C230.717 301.895 236.185 304.541 239.177 310.694C211.48 315.794 185.246 317.606 162.991 308.174C163.446 308.194 163.953 308.217 164.507 308.235Z" stroke="#F7FFFD" stroke-opacity="0.1"/>
<path d="M16.7316 189.189C21.9595 204.83 30.1166 219.608 40.66 232.05C49.3951 242.363 60.1074 251.405 72.8375 256.111L72.8379 256.112C82.1299 259.543 90.946 259.604 99.8004 258.32L99.8008 258.321C105.475 257.53 111.165 256.178 116.997 254.822L116.998 254.822C140.552 249.318 166.004 251.855 188.369 261.939C189.275 265.144 187.869 268.462 185.335 271.403C182.755 274.397 179.088 276.894 175.876 278.299C172.662 279.705 169.219 280.391 165.676 280.881C162.163 281.366 158.485 281.665 154.951 282.295L154.95 282.295C147.86 283.571 140.135 286.901 137.379 293.888C135.747 298.01 136.176 302.371 137.674 306.522C139.17 310.671 141.745 314.647 144.464 318.043C161.234 339.01 179.712 346.098 205.5 351.336L205.501 351.337C216.022 353.461 225.532 354.33 233.995 354.973C242.472 355.617 249.864 356.031 256.211 357.239C262.549 358.445 267.785 360.432 271.959 364.18C276.018 367.827 279.12 373.185 281.215 381.244C234.943 377.624 186.635 373.774 143.062 355.642L143.061 355.642C103.109 339.025 66.124 311.403 41.8782 274.591C25.1744 249.231 16.1228 218.52 16.7316 189.189Z" stroke="#F7FFFD" stroke-opacity="0.1"/>
<path d="M77.0535 103.783C101.682 91.7237 131.496 87.9461 156.629 100.338L157.169 100.604L157.331 100.026C162.508 81.6555 174.712 66.7186 190.019 55.7944L198.909 54.009C224.434 48.8987 246.608 53.3505 264.855 67.2133C281.22 79.6594 291.673 97.7017 297.388 113.64C292.122 104.972 285.344 97.3187 276.924 91.5948C258.632 79.1621 233.541 77.4995 213.718 87.4065C203.821 92.3535 194.424 100.453 187.373 110.068C180.528 119.4 175.872 130.19 175.136 140.945C166.649 134.298 155.515 130.541 144 129.386C132.137 128.197 119.83 129.764 109.533 133.812C88.9085 141.92 73.3599 161.685 70.3667 183.598C67.6976 203.12 74.479 222.928 85.3625 239.265L85.8835 240.041C89.5728 245.509 93.7218 250.618 98.1429 255.494C90.4915 256.304 84.1237 255.718 77.9377 253.639L77.3143 253.425C66.9228 249.759 57.012 242.518 47.8411 231.868C37.5594 219.935 29.5924 205.374 24.8026 189.747L22.241 181.399C26.5403 149.249 43.8343 120.055 77.0535 103.783Z" stroke="#F7FFFD" stroke-opacity="0.1"/>
</svg>
