<svg width="41" height="39" viewBox="0 0 41 39" fill="none" xmlns="http://www.w3.org/2000/svg">
<path d="M28.9936 17.157C31.0945 17.157 32.8 15.321 32.8 13.0578C32.8 10.7931 31.0945 8.95703 28.9936 8.95703C26.8885 8.95703 25.1857 10.7931 25.1857 13.0578C25.1857 15.321 26.8885 17.157 28.9936 17.157Z" fill="#E17153"/>
<path d="M29.1722 0.180154C28.5353 0.157286 27.893 0.178809 27.2548 0.24876C36.0777 2.24774 35.9305 11.2889 34.7036 14.7017C34.6969 14.7219 34.6888 14.7434 34.6822 14.7622C34.1469 16.2298 33.2679 17.8158 31.8951 18.6472C30.0459 19.7637 27.6241 19.1341 25.977 17.9436C21.706 14.8577 20.3292 8.27427 14.2907 7.61512C12.1378 7.38105 10.5429 8.34826 10.5429 8.34826C10.5429 8.34826 16.3164 10.4966 20.5111 19.5659C23.6207 26.292 22.9691 33.8978 22.1823 38.2428C26.3703 35.999 30.5998 33.5575 33.9141 30.1299C37.3408 26.5866 39.9406 22.0452 40.7675 17.1392C42.0814 9.35447 37.7743 0.497624 29.1722 0.180154Z" fill="#E17153"/>
<path d="M14.0047 29.4239C12.6392 28.76 11.5312 27.9932 9.95714 26.5286C11.906 30.0796 15.9454 32.7419 20.5 34.1429C20.5 32.7826 20.1879 32.1187 18.9232 31.4006C17.3873 30.5267 15.5897 30.1975 14.0047 29.4239Z" fill="#058789"/>
<path d="M11.1286 25.3572C13.0489 27.5759 16.0307 28.6664 19.3286 29.4572C19.3286 27.7509 17.4231 27.1679 16.2482 27.037C13.6553 26.7461 11.1286 25.3572 11.1286 25.3572Z" fill="#058789"/>
<path d="M13.8657 32.042C11.4165 30.2974 9.82553 28.7062 9.05269 25.7521C8.80218 24.7957 8.72223 23.6367 9.42179 22.9526C10.0134 22.3725 10.9502 22.3779 11.747 22.5736C12.5438 22.7706 13.3167 23.1264 14.1362 23.1319C14.9543 23.1373 16.1709 22.7652 16.2668 21.9278C14.3867 19.8124 11.8229 18.3484 9.08067 17.823C8.40643 17.693 7.75084 17.5699 7.12323 17.3893C6.14252 17.1129 5.23242 16.6996 4.42893 15.917C3.32562 14.8415 2.63006 13.4076 2.19833 11.9285C1.64668 10.0403 1.49477 8.00297 1.72929 6.02856C0.182264 9.13589 -0.354732 12.9055 0.231566 16.4575C1.05505 21.4475 3.64409 26.0668 7.05661 29.6708C10.7969 33.6223 15.7112 36.285 20.4042 38.8286C21.1051 34.8811 17.8618 34.8811 13.8657 32.042Z" fill="#00715D"/>
<path d="M33.2768 5.12832C32.009 2.81454 29.8884 1.30881 26.9756 0.651854L25.9534 0.421921C23.8355 0.851567 21.8516 1.85013 20.4458 3.54375C18.3856 1.06179 15.0813 0.0658536 11.9412 0.180163C7.69481 0.335204 4.5166 2.59774 2.56684 5.77608L2.44465 6.7799C2.21735 8.64301 2.37239 10.5429 2.89267 12.276C3.35646 13.8224 4.05806 15.0496 4.98039 15.9247C5.57162 16.4857 6.26139 16.8707 7.18503 17.1571C6.9354 16.4095 6.72781 15.6501 6.59117 14.8735C6.19176 12.6399 6.39278 10.2249 7.58707 8.29483C8.90618 6.16236 11.4262 4.83138 13.933 4.94306C16.4372 5.05474 19.3224 6.56705 20.4458 8.80856C21.5691 6.56705 24.4543 5.05474 26.9585 4.94306C29.4654 4.83138 31.9853 6.16236 33.3044 8.29483C34.0139 9.44186 34.3713 10.7597 34.4633 12.1078C34.7076 10.0791 34.529 7.41583 33.2768 5.12832Z" fill="#00715D"/>
</svg>
